<svg xmlns="http://www.w3.org/2000/svg" viewBox="16.5 27.5 60 59" role="img" data-icon-id="local.workflow.stage8a.package.local_outline.v1" data-source="local_extracted_svg_icons">
<title>Stage8a package</title>
<g><polygon fill="#DFF4D8" stroke="#2E7D32" stroke-width="3" stroke-linejoin="round" points="27,49 49,59 70,49 70,74 49,85 27,74"/><polygon fill="#C9EFBF" stroke="#2E7D32" stroke-width="2.5" stroke-linejoin="round" points="27,49 49,59 49,85 27,74"/><polygon fill="#EAF8E6" stroke="#2E7D32" stroke-width="2.5" stroke-linejoin="round" points="49,59 70,49 70,74 49,85"/><polygon fill="#FFFFFF" stroke="#2E7D32" stroke-width="2.5" stroke-linejoin="round" points="18,36 39,29 47,52 26,59"/><polygon fill="#FFFFFF" stroke="#2E7D32" stroke-width="2.5" stroke-linejoin="round" points="48,30 75,39 67,61 40,52"/><circle fill="#2E7D32" cx="32" cy="39" r="3"/><path fill="none" stroke="#2E7D32" stroke-width="2" stroke-linecap="round" stroke-linejoin="round" d="M23 53 L31 44 L39 54"/><rect fill="#DFF4D8" stroke="#2E7D32" stroke-width="1.8" x="54" y="39" width="9" height="9"/><rect fill="#EAF8E6" stroke="#2E7D32" stroke-width="1.8" x="65" y="43" width="8" height="8"/></g>
</svg>
